# xmcd CD database file
#
# Track frame offsets:
#	150
#	19697
#	36100
#	54177
#	67872
#	85535
#	103022
#	125187
#	144335
#	162020
#	177755
#	197512
#
# Disc length: 2908 seconds
#
# Revision: 2
# Processed by: cddbd v1.5.1PL0 Copyright (c) Steve Scherf et al.
# Submitted via: email 0.0
#
#blues,classical,country,data,folk,jazz,newage,reggae,rock,soundtrack,misc
#CATEGORY=country
#
DISCID=8e0b5a0c
DTITLE=Various Artist - Courage
DYEAR=2002
DGENRE=Unknown
TTITLE0=b4-4 - Really Gotta Want It
TTITLE1=LeAnn Rimes - You Light Up My Life
TTITLE2=Terri Clark - No Fear
TTITLE3=Adam Gregory - The Sky is the Limit
TTITLE4=Chantal Kreviazuk - Before You
TTITLE5=Stef Carse - Reach Out For Freedom
TTITLE6=Tyley Ross - Along the Way
TTITLE7=Stan Foster - Heroes of the Game
TTITLE8=Patricia Conroy - I'd Do Anything
TTITLE9=Joe Diffie - World of Difference
TTITLE10=Amy Sky - Wind Beneath My Wings
TTITLE11=Michael Burgess - My Way
EXTD=this CD: CSO-CD-2001\n 
EXTD=UPC =7 76127 16272 2\n
EXTD=promotional CD to benefit Special Olympics Canada www.osoinc.com
EXTD=
EXTT0=
EXTT1=
EXTT2=
EXTT3=
EXTT4=
EXTT5=
EXTT6=
EXTT7=
EXTT8=
EXTT9=
EXTT10=
EXTT11=
PLAYORDER=
